<svg width="199" height="30" viewBox="0 0 199 30" fill="none" xmlns="http://www.w3.org/2000/svg">
<path d="M2.95401 14.9717C2.95401 8.27078 8.38632 2.84075 15.0849 2.84075C17.7988 2.84075 20.3043 3.73103 22.325 5.23522C21.8787 5.83327 21.4325 6.43359 20.9862 7.03164C20.5558 7.68406 20.1276 8.33648 19.6972 8.98663C19.491 9.29472 19.2872 9.60054 19.081 9.90863C16.6979 13.5694 14.3147 17.2325 11.9316 20.8933C11.3562 21.6907 10.7808 22.4858 10.2054 23.281C14.3125 23.315 18.4173 23.3489 22.5244 23.3852C23.1904 22.282 23.8541 21.1787 24.5201 20.0755C21.804 20.0597 19.0923 20.0438 16.3785 20.0279C18.4626 16.9154 20.549 13.8028 22.6331 10.6902C23.2447 9.76591 24.4431 7.9038 24.4431 7.9038L26.3256 5.17179C23.5755 2.00483 19.5228 0 15.0011 0C6.71676 0 0 6.71675 0 14.9989C0 18.4218 1.14853 21.5752 3.07861 24.0988L4.86597 21.5072C3.65627 19.6202 2.95401 17.3775 2.95401 14.9717Z" fill="#C2187A"/>
<path d="M27.114 6.1572L25.4377 8.59018C25.4377 8.59018 27.216 12.6112 27.216 14.9717C27.216 21.6703 21.7859 27.1026 15.085 27.1026C12.421 27.1026 9.95628 26.244 7.95371 24.7829C8.34335 24.2528 8.73299 23.7227 9.12036 23.1926C9.54398 22.5379 9.9676 21.8832 10.3935 21.2263C10.5951 20.9182 10.7967 20.6101 11.0006 20.302C13.352 16.6186 15.7035 12.9374 18.0549 9.25393C18.6258 8.45426 19.1944 7.65459 19.763 6.85492H7.44174C6.78706 7.96268 6.13237 9.07043 5.47542 10.1805C8.19157 10.1737 10.9032 10.1669 13.6171 10.1578C11.5601 13.2885 9.50094 16.417 7.44174 19.5499C6.90259 20.379 6.3657 21.2059 5.82655 22.035L3.88062 25.0661C6.62622 28.0971 10.5906 30 15.0012 30C23.2833 30 30.0001 23.2832 30.0001 14.9988C30.0001 11.6914 28.9263 8.63775 27.114 6.1572Z" fill="#42277D"/>
<path d="M49.1956 9.58392V7.26628H36.1776V10.1809H44.4899L36 20.4129V22.7336H49.5262V19.8158H40.7271L49.1956 9.58392Z" fill="#42277D"/>
<path d="M56.6844 7.26628L49.7897 22.7366H53.4575L54.8352 19.4209H62.0055L63.3802 22.7366H67.1368L60.2206 7.26628H56.6844ZM55.968 16.7022L58.4296 10.781L60.8819 16.7022H55.968Z" fill="#42277D"/>
<path d="M80.5528 14.8346C80.4119 14.7764 80.265 14.7274 80.118 14.6785C80.7212 14.3631 81.211 13.9375 81.5692 13.3987C81.9672 12.8017 82.1662 12.0975 82.1662 11.2892C82.1662 10.0799 81.6764 9.10937 80.6967 8.37152C79.7169 7.63368 78.2535 7.26628 76.3094 7.26628H68.7502V22.7366H76.7502C78.7832 22.7366 80.3231 22.3662 81.3702 21.6191C82.4173 20.8752 82.9408 19.8403 82.9408 18.5147C82.9408 17.6176 82.7296 16.8583 82.3101 16.2399C81.8907 15.6214 81.3059 15.153 80.5528 14.8377V14.8346ZM72.3109 9.9605H75.8685C76.738 9.9605 77.4054 10.1105 77.8677 10.4136C78.3331 10.7167 78.5627 11.1698 78.5627 11.773C78.5627 12.3761 78.33 12.8537 77.8677 13.1538C77.4024 13.4569 76.738 13.6069 75.8685 13.6069H72.3109V9.9605ZM78.5964 19.5862C78.1188 19.8893 77.4146 20.0393 76.4869 20.0393H72.3109V16.2154H76.4869C77.4146 16.2154 78.1188 16.3746 78.5964 16.6899C79.074 17.0083 79.3159 17.489 79.3159 18.1381C79.3159 18.7871 79.0771 19.2831 78.5964 19.5862Z" fill="#42277D"/>
<path d="M100.974 11.8067C100.545 10.8423 99.9542 9.99732 99.1949 9.27784C98.4356 8.5553 97.5447 7.99503 96.5221 7.59702C95.4965 7.19901 94.3729 7 93.1513 7C91.9297 7 90.8244 7.19901 89.7927 7.59702C88.7609 7.99503 87.8639 8.5553 87.0954 9.27784C86.33 10.0004 85.736 10.8454 85.3166 11.819C84.8972 12.7926 84.6859 13.8519 84.6859 15C84.6859 16.1481 84.8972 17.2105 85.3166 18.181C85.736 19.1546 86.3269 19.9996 87.0832 20.7222C87.8424 21.4447 88.7395 22.005 89.7804 22.403C90.8183 22.801 91.9481 23 93.1727 23C94.3974 23 95.4965 22.801 96.5221 22.403C97.5447 22.005 98.4356 21.4478 99.1949 20.7344C99.9542 20.021 100.545 19.173 100.974 18.1933C101.402 17.2135 101.614 16.1481 101.614 15C101.614 13.8519 101.399 12.7711 100.974 11.8067ZM97.6243 17.0115C97.3824 17.6146 97.0395 18.1382 96.5956 18.579C96.1517 19.0199 95.6404 19.3597 95.0587 19.5955C94.477 19.8312 93.8401 19.9506 93.1482 19.9506C92.4563 19.9506 91.8134 19.8343 91.2255 19.5955C90.6377 19.3597 90.1233 19.0199 89.6886 18.579C89.2538 18.1382 88.914 17.6116 88.6721 16.9992C88.4303 16.3869 88.3078 15.7225 88.3078 15C88.3078 14.2775 88.4303 13.5947 88.6721 12.9885C88.914 12.3854 89.2569 11.8618 89.7008 11.421C90.1417 10.9801 90.6561 10.6403 91.2378 10.4045C91.8195 10.1688 92.4563 10.0524 93.1482 10.0524C93.8401 10.0524 94.48 10.1718 95.0709 10.4045C95.6587 10.6403 96.1731 10.9801 96.6078 11.421C97.0426 11.8618 97.3824 12.3854 97.6243 12.9885C97.8662 13.5917 97.9886 14.2622 97.9886 15C97.9886 15.7378 97.8662 16.4083 97.6243 17.0115Z" fill="#42277D"/>
<path d="M102.397 10.1811H107.348V22.7337H110.927V10.1811H115.878V7.2664H102.397V10.1811Z" fill="#C2187A"/>
<path d="M128.078 17.7616C129.079 17.3207 129.854 16.6839 130.399 15.8511C130.944 15.0184 131.216 14.0264 131.216 12.8783C131.216 11.7302 130.944 10.7137 130.399 9.8718C129.854 9.03292 129.079 8.38692 128.078 7.93686C127.077 7.4868 125.883 7.26331 124.499 7.26331H117.803V22.7336H121.382V18.4229H124.499C124.554 18.4229 124.609 18.4229 124.665 18.4198L127.637 22.7336H131.504L128.048 17.7738C128.048 17.7738 128.069 17.7646 128.078 17.7616ZM126.774 14.8561C126.229 15.3337 125.402 15.5756 124.3 15.5756H121.382V10.1841H124.3C125.405 10.1841 126.229 10.4198 126.774 10.8913C127.319 11.3628 127.591 12.0272 127.591 12.8814C127.591 13.7356 127.319 14.3816 126.774 14.8592V14.8561Z" fill="#C2187A"/>
<path d="M138.904 7.2663L132.009 22.7366H135.677L137.055 19.4209H144.225L145.6 22.7366H149.357L142.44 7.2663H138.904ZM138.188 16.7022L140.649 10.781L143.102 16.7022H138.188Z" fill="#C2187A"/>
<path d="M156.671 18.3126L151.965 7.2663H148.098L154.773 22.7336H158.309L165.005 7.2663H161.447L156.671 18.3126Z" fill="#C2187A"/>
<path d="M169.845 16.2828H177.027V13.4967H169.845V10.1381H177.976V7.2663H166.287V22.7336H178.264V19.8618H169.845V16.2828Z" fill="#C2187A"/>
<path d="M184.694 7.2663H181.115V18.7933L184.694 16.5981V7.2663Z" fill="#C2187A"/>
<path d="M185.248 22.7336H192.452V19.8159H188.009L185.248 22.7336Z" fill="#C2187A"/>
<path d="M198.636 7.45615C198.134 7.03977 197.366 7.51738 197.366 7.51738L195.556 9.21046L193.428 8.56446L190.958 7.81436L190.725 7.74394L190.137 8.29197L190.296 8.40831L192.127 9.72481L193.924 11.0168L192.17 12.6548L190.149 12.2874L189.758 12.6548L191.246 13.6743L181.145 19.8618V22.7336H183.996L191.913 14.3693L192.856 15.9705L193.248 15.6031L193.018 13.561L194.773 11.923L195.899 13.7355L197.044 15.5817L197.234 15.8848L197.822 15.3367L197.718 14.8898L197.173 12.5323L196.683 10.4167L198.492 8.72366C198.492 8.72366 199.019 7.98887 198.639 7.45921L198.636 7.45615Z" fill="#C2187A"/>
</svg>
