<svg width="289" height="56" viewBox="0 0 289 56" fill="none" xmlns="http://www.w3.org/2000/svg">
<path d="M259.329 15.1626H248.096V19.8022H258.016V23.6479H248.096V28.5923H259.725V32.5601H243.182V11.1948H259.329V15.1626Z" fill="white"/>
<path d="M229.888 26.4546L236.484 11.1948H241.398L232.15 32.5601H227.267L218.049 11.1948H223.391L229.888 26.4546Z" fill="white"/>
<path d="M219.803 32.5601H214.614L212.718 27.9819H202.813L200.909 32.5601H195.843L205.365 11.1948H210.249L219.803 32.5601ZM204.374 24.228H211.162L207.774 16.0513L204.374 24.228Z" fill="white"/>
<path d="M185.455 11.1948C187.368 11.1949 189.016 11.5104 190.399 12.1411C191.783 12.7516 192.852 13.6366 193.604 14.7964C194.357 15.9562 194.733 17.3403 194.733 18.9478C194.733 20.5347 194.357 21.9081 193.604 23.0679C192.852 24.2073 191.783 25.0824 190.399 25.6929C190.385 25.6991 190.371 25.7043 190.356 25.7104L195.13 32.5601H189.789L185.685 26.604C185.608 26.605 185.532 26.6089 185.455 26.6089H181.151V32.5601H176.206V11.1948H185.455ZM181.151 22.6714H185.18C186.706 22.6714 187.846 22.346 188.599 21.6948C189.351 21.0234 189.727 20.1075 189.728 18.9478C189.728 17.7677 189.351 16.8518 188.599 16.2007C187.846 15.5495 186.706 15.2241 185.18 15.2241H181.151V22.6714Z" fill="white"/>
<path d="M173.546 15.2241H166.709V32.5601H161.764V15.2241H154.927V11.1948H173.546V15.2241Z" fill="white"/>
<path d="M142.23 10.8286C143.919 10.8286 145.466 11.1035 146.87 11.6528C148.294 12.2022 149.525 12.9754 150.562 13.9722C151.621 14.9692 152.445 16.1399 153.035 17.4829C153.625 18.8054 153.92 20.2702 153.92 21.8774C153.92 23.4645 153.625 24.94 153.035 26.3032C152.445 27.6462 151.621 28.8169 150.562 29.814C149.525 30.7904 148.294 31.5537 146.87 32.103C145.466 32.6524 143.929 32.9272 142.261 32.9272C140.572 32.9272 139.005 32.6524 137.561 32.103C136.136 31.5536 134.895 30.7798 133.837 29.7827C132.799 28.7857 131.985 27.6159 131.395 26.2729C130.825 24.93 130.54 23.4645 130.54 21.8774C130.54 20.2906 130.825 18.8257 131.395 17.4829C131.985 16.1399 132.809 14.9692 133.867 13.9722C134.925 12.9752 136.167 12.2022 137.591 11.6528C139.015 11.1034 140.562 10.8286 142.23 10.8286ZM142.23 15.0405C141.274 15.0405 140.389 15.2034 139.575 15.5288C138.782 15.8544 138.079 16.3227 137.469 16.9331C136.858 17.5435 136.38 18.2659 136.034 19.1001C135.709 19.9343 135.546 20.8602 135.546 21.8774C135.546 22.8745 135.709 23.8011 136.034 24.6558C136.38 25.4899 136.848 26.2124 137.438 26.8228C138.049 27.4331 138.761 27.9006 139.575 28.2261C140.389 28.5516 141.274 28.7144 142.23 28.7144C143.187 28.7143 144.062 28.5516 144.855 28.2261C145.669 27.9005 146.382 27.4331 146.992 26.8228C147.602 26.2124 148.07 25.4898 148.396 24.6558C148.741 23.8215 148.915 22.8948 148.915 21.8774C148.915 20.8602 148.741 19.9343 148.396 19.1001C148.07 18.266 147.602 17.5435 146.992 16.9331C146.402 16.3227 145.7 15.8544 144.886 15.5288C144.072 15.2033 143.187 15.0405 142.23 15.0405Z" fill="white"/>
<path d="M118.983 11.1948C121.669 11.1948 123.684 11.7038 125.027 12.7212C126.39 13.7385 127.072 15.0813 127.072 16.7495C127.072 17.8687 126.797 18.8459 126.248 19.6802C125.749 20.4185 125.082 21.003 124.249 21.4399C124.452 21.5076 124.651 21.5805 124.843 21.6636C125.881 22.0908 126.685 22.732 127.254 23.5864C127.844 24.441 128.14 25.4897 128.14 26.731C128.14 28.5621 127.417 29.997 125.972 31.0347C124.527 32.0518 122.401 32.5601 119.593 32.5601H108.544V11.1948H118.983ZM113.458 28.8364H119.227C120.509 28.8364 121.475 28.633 122.126 28.2261C122.798 27.7988 123.134 27.1271 123.134 26.2114C123.134 25.3163 122.798 24.6553 122.126 24.228C121.475 23.7804 120.509 23.5562 119.227 23.5562H113.458V28.8364ZM113.458 19.9546H118.373C119.573 19.9546 120.489 19.7512 121.12 19.3442C121.771 18.9169 122.096 18.276 122.096 17.4214C122.096 16.5871 121.771 15.966 121.12 15.5591C120.489 15.1319 119.573 14.9185 118.373 14.9185H113.458V19.9546Z" fill="white"/>
<path d="M106.328 32.5601H101.139L99.2427 27.9819H89.3384L87.4341 32.5601H82.3677L91.8901 11.1948H96.7739L106.328 32.5601ZM90.8989 24.228H97.687L94.2993 16.0513L90.8989 24.228Z" fill="white"/>
<path d="M81.5469 14.3999L69.8516 28.5317H82.0049V32.5601H63.3252V29.356L75.0469 15.2241H63.5693V11.1948H81.5469V14.3999Z" fill="white"/>
<path d="M172.85 48.718V43.6741H170.861V42.502H176.278V43.6741H174.289V48.718H172.85Z" fill="white"/>
<path d="M165.12 48.718V42.502H167.81C168.367 42.502 168.846 42.5937 169.249 42.7772C169.651 42.9548 169.962 43.2124 170.181 43.5498C170.4 43.8873 170.51 44.2898 170.51 44.7575C170.51 45.2193 170.4 45.6189 170.181 45.9563C169.962 46.2878 169.651 46.5424 169.249 46.72C168.846 46.8976 168.367 46.9864 167.81 46.9864H165.919L166.558 46.3559V48.718H165.12ZM169.071 48.718L167.517 46.4625H169.054L170.625 48.718H169.071ZM166.558 46.5158L165.919 45.8409H167.73C168.174 45.8409 168.506 45.7462 168.725 45.5567C168.944 45.3614 169.054 45.0949 169.054 44.7575C169.054 44.4141 168.944 44.1477 168.725 43.9583C168.506 43.7689 168.174 43.6741 167.73 43.6741H165.919L166.558 42.9904V46.5158Z" fill="white"/>
<path d="M160.646 48.8247C160.155 48.8247 159.699 48.7448 159.279 48.585C158.864 48.4251 158.503 48.2001 158.195 47.9101C157.893 47.62 157.657 47.2796 157.485 46.8888C157.319 46.4981 157.236 46.0719 157.236 45.6101C157.236 45.1483 157.319 44.7221 157.485 44.3314C157.657 43.9406 157.896 43.6002 158.204 43.3102C158.512 43.0201 158.873 42.7951 159.288 42.6353C159.702 42.4754 160.152 42.3955 160.637 42.3955C161.129 42.3955 161.579 42.4754 161.987 42.6353C162.402 42.7951 162.76 43.0201 163.062 43.3102C163.37 43.6002 163.609 43.9406 163.781 44.3314C163.953 44.7162 164.039 45.1424 164.039 45.6101C164.039 46.0719 163.953 46.5011 163.781 46.8977C163.609 47.2885 163.37 47.6289 163.062 47.9189C162.76 48.2031 162.402 48.4251 161.987 48.585C161.579 48.7448 161.132 48.8247 160.646 48.8247ZM160.637 47.5993C160.916 47.5993 161.17 47.5519 161.401 47.4572C161.638 47.3625 161.845 47.2263 162.023 47.0487C162.2 46.8711 162.336 46.6609 162.431 46.4182C162.532 46.1755 162.582 45.9061 162.582 45.6101C162.582 45.3141 162.532 45.0447 162.431 44.802C162.336 44.5593 162.2 44.3491 162.023 44.1715C161.851 43.9939 161.647 43.8578 161.41 43.763C161.173 43.6683 160.916 43.621 160.637 43.621C160.359 43.621 160.102 43.6683 159.865 43.763C159.634 43.8578 159.43 43.9939 159.252 44.1715C159.075 44.3491 158.935 44.5593 158.835 44.802C158.74 45.0447 158.693 45.3141 158.693 45.6101C158.693 45.9002 158.74 46.1696 158.835 46.4182C158.935 46.6609 159.072 46.8711 159.243 47.0487C159.421 47.2263 159.628 47.3625 159.865 47.4572C160.102 47.5519 160.359 47.5993 160.637 47.5993Z" fill="white"/>
<path d="M151.123 48.718V42.502H153.814C154.37 42.502 154.85 42.5937 155.252 42.7772C155.655 42.9548 155.966 43.2124 156.185 43.5498C156.404 43.8873 156.513 44.2898 156.513 44.7575C156.513 45.2193 156.404 45.6189 156.185 45.9563C155.966 46.2938 155.655 46.5542 155.252 46.7378C154.85 46.9154 154.37 47.0042 153.814 47.0042H151.922L152.562 46.3559V48.718H151.123ZM152.562 46.5158L151.922 45.832H153.734C154.178 45.832 154.509 45.7373 154.728 45.5478C154.947 45.3584 155.057 45.0949 155.057 44.7575C155.057 44.4141 154.947 44.1477 154.728 43.9583C154.509 43.7689 154.178 43.6741 153.734 43.6741H151.922L152.562 42.9904V46.5158Z" fill="white"/>
<path d="M146.65 48.8247C146.158 48.8247 145.703 48.7448 145.282 48.585C144.868 48.4251 144.507 48.2001 144.199 47.9101C143.897 47.62 143.66 47.2796 143.488 46.8888C143.323 46.4981 143.24 46.0719 143.24 45.6101C143.24 45.1483 143.323 44.7221 143.488 44.3314C143.66 43.9406 143.9 43.6002 144.208 43.3102C144.516 43.0201 144.877 42.7951 145.291 42.6353C145.705 42.4754 146.155 42.3955 146.641 42.3955C147.132 42.3955 147.582 42.4754 147.991 42.6353C148.405 42.7951 148.763 43.0201 149.065 43.3102C149.373 43.6002 149.613 43.9406 149.784 44.3314C149.956 44.7162 150.042 45.1424 150.042 45.6101C150.042 46.0719 149.956 46.5011 149.784 46.8977C149.613 47.2885 149.373 47.6289 149.065 47.9189C148.763 48.2031 148.405 48.4251 147.991 48.585C147.582 48.7448 147.135 48.8247 146.65 48.8247ZM146.641 47.5993C146.919 47.5993 147.174 47.5519 147.405 47.4572C147.641 47.3625 147.849 47.2263 148.026 47.0487C148.204 46.8711 148.34 46.6609 148.435 46.4182C148.535 46.1755 148.586 45.9061 148.586 45.6101C148.586 45.3141 148.535 45.0447 148.435 44.802C148.34 44.5593 148.204 44.3491 148.026 44.1715C147.854 43.9939 147.65 43.8578 147.413 43.763C147.177 43.6683 146.919 43.621 146.641 43.621C146.363 43.621 146.105 43.6683 145.868 43.763C145.637 43.8578 145.433 43.9939 145.256 44.1715C145.078 44.3491 144.939 44.5593 144.838 44.802C144.743 45.0447 144.696 45.3141 144.696 45.6101C144.696 45.9002 144.743 46.1696 144.838 46.4182C144.939 46.6609 145.075 46.8711 145.247 47.0487C145.424 47.2263 145.631 47.3625 145.868 47.4572C146.105 47.5519 146.363 47.5993 146.641 47.5993Z" fill="white"/>
<path d="M137.1 48.718V42.502H139.791C140.347 42.502 140.827 42.5937 141.229 42.7772C141.632 42.9548 141.943 43.2124 142.162 43.5498C142.381 43.8873 142.49 44.2898 142.49 44.7575C142.49 45.2193 142.381 45.6189 142.162 45.9563C141.943 46.2878 141.632 46.5424 141.229 46.72C140.827 46.8976 140.347 46.9864 139.791 46.9864H137.899L138.539 46.3559V48.718H137.1ZM141.052 48.718L139.498 46.4625H141.034L142.606 48.718H141.052ZM138.539 46.5158L137.899 45.8409H139.711C140.155 45.8409 140.486 45.7462 140.705 45.5567C140.924 45.3614 141.034 45.0949 141.034 44.7575C141.034 44.4141 140.924 44.1477 140.705 43.9583C140.486 43.7689 140.155 43.6741 139.711 43.6741H137.899L138.539 42.9904V46.5158Z" fill="white"/>
<path d="M132.466 45.0061H135.458V46.125H132.466V45.0061ZM132.572 47.5636H135.956V48.718H131.143V42.502H135.84V43.6564H132.572V47.5636Z" fill="white"/>
<path d="M123.527 48.718L126.297 42.502H127.718L130.498 48.718H128.988L126.715 43.2301H127.283L125.001 48.718H123.527ZM124.912 47.386L125.294 46.2938H128.491L128.882 47.386H124.912Z" fill="white"/>
<path d="M117.627 48.718V43.6741H115.638V42.502H121.055V43.6741H119.066V48.718H117.627Z" fill="white"/>
<path d="M109.896 48.718V42.502H112.587C113.144 42.502 113.623 42.5937 114.026 42.7772C114.428 42.9548 114.739 43.2124 114.958 43.5498C115.177 43.8873 115.287 44.2898 115.287 44.7575C115.287 45.2193 115.177 45.6189 114.958 45.9563C114.739 46.2878 114.428 46.5424 114.026 46.72C113.623 46.8976 113.144 46.9864 112.587 46.9864H110.696L111.335 46.3559V48.718H109.896ZM113.848 48.718L112.294 46.4625H113.83L115.402 48.718H113.848ZM111.335 46.5158L110.696 45.8409H112.507C112.951 45.8409 113.283 45.7462 113.502 45.5567C113.721 45.3614 113.83 45.0949 113.83 44.7575C113.83 44.4141 113.721 44.1477 113.502 43.9583C113.283 43.7689 112.951 43.6741 112.507 43.6741H110.696L111.335 42.9904V46.5158Z" fill="white"/>
<path d="M105.423 48.8247C104.932 48.8247 104.476 48.7448 104.056 48.585C103.641 48.4251 103.28 48.2001 102.972 47.9101C102.67 47.62 102.434 47.2796 102.262 46.8888C102.096 46.4981 102.013 46.0719 102.013 45.6101C102.013 45.1483 102.096 44.7221 102.262 44.3314C102.434 43.9406 102.673 43.6002 102.981 43.3102C103.289 43.0201 103.65 42.7951 104.064 42.6353C104.479 42.4754 104.929 42.3955 105.414 42.3955C105.906 42.3955 106.356 42.4754 106.764 42.6353C107.178 42.7951 107.537 43.0201 107.839 43.3102C108.146 43.6002 108.386 43.9406 108.558 44.3314C108.73 44.7162 108.815 45.1424 108.815 45.6101C108.815 46.0719 108.73 46.5011 108.558 46.8977C108.386 47.2885 108.146 47.6289 107.839 47.9189C107.537 48.2031 107.178 48.4251 106.764 48.585C106.356 48.7448 105.909 48.8247 105.423 48.8247ZM105.414 47.5993C105.693 47.5993 105.947 47.5519 106.178 47.4572C106.415 47.3625 106.622 47.2263 106.8 47.0487C106.977 46.8711 107.113 46.6609 107.208 46.4182C107.309 46.1755 107.359 45.9061 107.359 45.6101C107.359 45.3141 107.309 45.0447 107.208 44.802C107.113 44.5593 106.977 44.3491 106.8 44.1715C106.628 43.9939 106.424 43.8578 106.187 43.763C105.95 43.6683 105.693 43.621 105.414 43.621C105.136 43.621 104.879 43.6683 104.642 43.763C104.411 43.8578 104.207 43.9939 104.029 44.1715C103.851 44.3491 103.712 44.5593 103.612 44.802C103.517 45.0447 103.47 45.3141 103.47 45.6101C103.47 45.9002 103.517 46.1696 103.612 46.4182C103.712 46.6609 103.848 46.8711 104.02 47.0487C104.198 47.2263 104.405 47.3625 104.642 47.4572C104.879 47.5519 105.136 47.5993 105.414 47.5993Z" fill="white"/>
<path d="M95.8999 48.718V42.502H98.5906C99.1471 42.502 99.6266 42.5937 100.029 42.7772C100.432 42.9548 100.743 43.2124 100.962 43.5498C101.181 43.8873 101.29 44.2898 101.29 44.7575C101.29 45.2193 101.181 45.6189 100.962 45.9563C100.743 46.2938 100.432 46.5542 100.029 46.7378C99.6266 46.9154 99.1471 47.0042 98.5906 47.0042H96.6991L97.3385 46.3559V48.718H95.8999ZM97.3385 46.5158L96.6991 45.832H98.5107C98.9547 45.832 99.2862 45.7373 99.5052 45.5478C99.7243 45.3584 99.8338 45.0949 99.8338 44.7575C99.8338 44.4141 99.7243 44.1477 99.5052 43.9583C99.2862 43.7689 98.9547 43.6741 98.5107 43.6741H96.6991L97.3385 42.9904V46.5158Z" fill="white"/>
<path d="M92.2794 48.8247C91.7821 48.8247 91.3055 48.7596 90.8497 48.6294C90.3938 48.4932 90.0268 48.3186 89.7485 48.1054L90.2369 47.0221C90.5033 47.2115 90.8171 47.3684 91.1782 47.4927C91.5453 47.6111 91.9153 47.6703 92.2883 47.6703C92.5724 47.6703 92.8003 47.6437 92.972 47.5904C93.1496 47.5312 93.2799 47.4513 93.3627 47.3506C93.4456 47.25 93.4871 47.1345 93.4871 47.0043C93.4871 46.8385 93.4219 46.7083 93.2917 46.6136C93.1615 46.5129 92.9898 46.433 92.7767 46.3738C92.5635 46.3087 92.3267 46.2495 92.0662 46.1962C91.8117 46.137 91.5542 46.066 91.2937 45.9831C91.0391 45.9002 90.8053 45.7936 90.5921 45.6634C90.379 45.5332 90.2044 45.3615 90.0682 45.1483C89.938 44.9352 89.8729 44.6629 89.8729 44.3314C89.8729 43.9762 89.9676 43.6535 90.157 43.3634C90.3524 43.0674 90.6425 42.8336 91.0273 42.6619C91.418 42.4843 91.9064 42.3955 92.4925 42.3955C92.8832 42.3955 93.268 42.4429 93.6469 42.5376C94.0258 42.6264 94.3603 42.7626 94.6504 42.9461L94.2064 44.0383C93.9163 43.8726 93.6262 43.7512 93.3361 43.6742C93.046 43.5914 92.7619 43.5499 92.4836 43.5499C92.2054 43.5499 91.9774 43.5825 91.7998 43.6476C91.6222 43.7127 91.495 43.7986 91.418 43.9051C91.341 44.0058 91.3026 44.1242 91.3026 44.2603C91.3026 44.4202 91.3677 44.5504 91.4979 44.6511C91.6282 44.7458 91.7998 44.8227 92.013 44.8819C92.2261 44.9411 92.4599 45.0003 92.7145 45.0595C92.975 45.1187 93.2325 45.1868 93.4871 45.2638C93.7476 45.3407 93.9844 45.4444 94.1975 45.5746C94.4106 45.7048 94.5823 45.8765 94.7125 46.0896C94.8487 46.3028 94.9168 46.5721 94.9168 46.8977C94.9168 47.247 94.8191 47.5667 94.6237 47.8568C94.4284 48.1469 94.1353 48.3807 93.7446 48.5583C93.3598 48.7359 92.8714 48.8247 92.2794 48.8247Z" fill="white"/>
<path d="M83.0649 48.718V42.502H84.2549L87.9224 46.9775H87.3452V42.502H88.766V48.718H87.5849L83.9086 44.2425H84.4858V48.718H83.0649Z" fill="white"/>
<path d="M75.4492 48.718L78.2198 42.502H79.6406L82.4201 48.718H80.9105L78.6372 43.2301H79.2055L76.9233 48.718H75.4492ZM76.8345 47.386L77.2164 46.2938H80.4132L80.8039 47.386H76.8345Z" fill="white"/>
<path d="M69.7363 48.718V42.502H72.427C72.9835 42.502 73.463 42.5937 73.8656 42.7772C74.2682 42.9548 74.579 43.2124 74.798 43.5498C75.017 43.8873 75.1266 44.2898 75.1266 44.7575C75.1266 45.2193 75.017 45.6189 74.798 45.9563C74.579 46.2878 74.2682 46.5424 73.8656 46.72C73.463 46.8976 72.9835 46.9864 72.427 46.9864H70.5355L71.1749 46.3559V48.718H69.7363ZM73.688 48.718L72.134 46.4625H73.6702L75.242 48.718H73.688ZM71.1749 46.5158L70.5355 45.8409H72.3471C72.7911 45.8409 73.1226 45.7462 73.3417 45.5567C73.5607 45.3614 73.6702 45.0949 73.6702 44.7575C73.6702 44.4141 73.5607 44.1477 73.3417 43.9583C73.1226 43.7689 72.7911 43.6741 72.3471 43.6741H70.5355L71.1749 42.9904V46.5158Z" fill="white"/>
<path d="M65.5346 48.718V43.6741H63.5454V42.502H68.9623V43.6741H66.9731V48.718H65.5346Z" fill="white"/>
<path d="M5.51413 27.947C5.51413 15.4387 15.6544 5.3027 28.1584 5.3027C33.2243 5.3027 37.9012 6.96455 41.6731 9.77236C40.8401 10.8887 40.0071 12.0093 39.174 13.1257C38.3706 14.3435 37.5714 15.5614 36.7679 16.775C36.3831 17.3501 36.0026 17.9209 35.6177 18.496C31.1692 25.3295 26.7207 32.1672 22.2722 39.0007C21.1981 40.4891 20.1241 41.9734 19.05 43.4576C26.7165 43.5211 34.3788 43.5845 42.0453 43.6522C43.2885 41.5928 44.5275 39.5335 45.7707 37.4741C40.7006 37.4445 35.6389 37.4149 30.573 37.3853C34.4633 31.5752 38.3579 25.765 42.2482 19.9549C43.39 18.2296 45.6269 14.7537 45.6269 14.7537L49.1409 9.65396C44.0074 3.74234 36.4423 0 28.002 0C12.5379 0 0 12.5379 0 27.9978C0 34.3872 2.14391 40.2735 5.74671 44.9842L9.0831 40.1466C6.82501 36.6242 5.51413 32.4378 5.51413 27.947Z" fill="white"/>
<path d="M50.6125 11.4937L47.4833 16.0352C47.4833 16.0352 50.8028 23.541 50.8028 27.9473C50.8028 40.4513 40.6667 50.5916 28.1585 50.5916C23.1856 50.5916 18.5848 48.9889 14.8467 46.2614C15.5741 45.2719 16.3014 44.2824 17.0245 43.2929C17.8152 42.0709 18.606 40.8488 19.401 39.6225C19.7773 39.0474 20.1537 38.4723 20.5342 37.8972C24.9236 31.0215 29.3129 24.1499 33.7022 17.2742C34.7678 15.7815 35.8292 14.2888 36.8906 12.7961H13.8911C12.669 14.8639 11.4469 16.9317 10.2206 19.0037C15.2907 18.991 20.3524 18.9783 25.4183 18.9614C21.5787 24.8054 17.7349 30.6451 13.8911 36.4933C12.8846 38.041 11.8825 39.5844 10.876 41.1321L7.24365 46.79C12.3688 52.4479 19.7689 56 28.002 56C43.4619 56 55.9998 43.4621 55.9998 27.998C55.9998 21.8242 53.9954 16.124 50.6125 11.4937Z" fill="white"/>
<path d="M268.581 11.1934H263.638V27.1142L268.581 24.0822V11.1934Z" fill="white"/>
<path d="M269.347 32.5567H279.297V28.5269H273.161L269.347 32.5567Z" fill="white"/>
<path d="M287.839 11.4551C287.145 10.88 286.084 11.5397 286.084 11.5397L283.585 13.8781L280.646 12.9859L277.233 11.9498L276.912 11.8526L276.1 12.6095L276.32 12.7702L278.849 14.5885L281.331 16.373L278.908 18.6353L276.117 18.1279L275.576 18.6353L277.631 20.0434L263.681 28.5895V32.556H267.618L278.553 21.0033L279.855 23.2149L280.396 22.7075L280.079 19.887L282.502 17.6247L284.058 20.128L285.64 22.6779L285.902 23.0965L286.714 22.3396L286.57 21.7222L285.818 18.4662L285.141 15.5442L287.64 13.2058C287.64 13.2058 288.367 12.1909 287.843 11.4593L287.839 11.4551Z" fill="white"/>
</svg>
