<svg width="24" height="24" viewBox="0 0 24 24" fill="none" xmlns="http://www.w3.org/2000/svg">
<path fill-rule="evenodd" clip-rule="evenodd" d="M16.641 14.0418C16.3856 13.9141 15.1333 13.2987 14.9001 13.2129C14.667 13.1281 14.4973 13.0861 14.3267 13.3415C14.157 13.5952 13.6693 14.1695 13.521 14.3392C13.3718 14.5098 13.2236 14.5304 12.969 14.4035C12.7144 14.2749 11.8933 14.0067 10.9204 13.1392C10.1636 12.4638 9.65185 11.6298 9.50357 11.3744C9.35528 11.1198 9.48728 10.9818 9.615 10.8549C9.72985 10.7409 9.86957 10.5575 9.99728 10.4092C10.125 10.2601 10.167 10.1538 10.2519 9.98323C10.3376 9.81352 10.2947 9.66523 10.2304 9.53752C10.167 9.40981 9.65785 8.15581 9.44528 7.64581C9.23871 7.14952 9.02871 7.21724 8.87271 7.20867C8.72357 7.20181 8.55385 7.2001 8.38414 7.2001C8.21443 7.2001 7.93843 7.26352 7.70528 7.51895C7.47129 7.77352 6.81386 8.38981 6.81386 9.64381C6.81386 10.8969 7.72586 12.1081 7.85357 12.2787C7.98128 12.4484 9.64928 15.0215 12.2044 16.1247C12.813 16.3869 13.287 16.5438 13.6564 16.6604C14.2667 16.8549 14.8221 16.8275 15.261 16.7615C15.7496 16.6887 16.7678 16.1452 16.9804 15.5504C17.1921 14.9555 17.1921 14.4455 17.1287 14.3392C17.0653 14.2329 16.8956 14.1695 16.6401 14.0418H16.641ZM11.9936 20.3872H11.9901C10.4725 20.3875 8.98274 19.9795 7.677 19.2061L7.36843 19.0226L4.16101 19.8644L5.01729 16.7375L4.81586 16.4169C3.96741 15.0664 3.5184 13.5033 3.52072 11.9084C3.52244 7.23695 7.323 3.43639 11.997 3.43639C14.2598 3.43639 16.3873 4.31924 17.9867 5.92038C18.7756 6.70602 19.4009 7.64029 19.8264 8.66915C20.2518 9.698 20.4691 10.801 20.4655 11.9144C20.4638 16.5858 16.6633 20.3872 11.9936 20.3872ZM19.2038 4.7041C18.2594 3.75346 17.1358 2.99971 15.8979 2.4865C14.6601 1.9733 13.3327 1.71086 11.9927 1.71439C6.375 1.71439 1.8013 6.28724 1.79958 11.9075C1.79872 13.7041 2.26758 15.4578 3.15986 17.0032L1.71387 22.2858L7.11729 20.8681C8.61203 21.6825 10.2871 22.1092 11.9893 22.1092H11.9936C17.6113 22.1092 22.185 17.5364 22.1867 11.9152C22.1908 10.5758 21.9293 9.24875 21.4173 8.01098C20.9053 6.77321 20.153 5.64924 19.2038 4.7041Z" fill="#C2187A"/>
</svg>
