<svg width="1440" height="670" viewBox="0 0 1440 670" fill="none" xmlns="http://www.w3.org/2000/svg" xmlns:xlink="http://www.w3.org/1999/xlink">
<path d="M275.729 20.8975L292.11 21.7627L301.871 12.0908L309.194 15.8848L295.6 29.1934L277.821 29.5352C278.695 29.5352 279.219 42.4902 279.219 42.4902L302.049 41.8018L304.486 35.7539L320.179 34.8887L322.093 25.5635L312.861 24.0107L315.987 15.7148L323.139 13.6436L347.538 14.8555L334.123 27.1162L336.209 36.6182L350.326 38.8604L349.28 21.5918L362.88 14.5088L386.757 11.7432L421.44 27.1162V40.2422L432.419 43.0078L427.009 53.375H411.329L406.8 65.459L371.071 56.9922L399.305 41.9727L388.671 32.8174L364.271 35.9238L362.179 38.1719L361.661 38.6895L354.684 45.9375L343.182 46.9795L344.228 52.6807L348.233 54.4102L348.062 56.3105L338.646 57.6865L337.957 63.2178L328.886 63.7354L327.323 52.8564L311.286 57.6865L278.345 77.0381L282.006 90.5049L291.237 96.376L309.717 98.9707V119.869L318.259 118.486L326.104 102.077L345.618 95.8652V70.6484L356.604 62.3525L382.745 68.5713L380.831 85.1504H387.797L407.323 75.6553L408.19 97.418L422.308 106.049L421.791 118.84L408.363 123.499L409.237 127.812L425.446 135.242L425.102 144.05L420.388 144.397V144.221L399.821 137.837L398.954 131.271L404.529 127.294V121.252L398.252 119.698L396.689 125.223L385.354 126.953L384.142 126.605V126.953L380.308 127.471L377.169 121.075L373.508 119.528H365.317L361.661 122.458V129.194L368.455 131.448L375.077 132.301L373.687 132.995L367.409 139.908L364.615 136.448L358.523 134.896L342.308 150.445L344.4 152.169L320.179 165.472L297.342 189.135L295.944 199.672L273.114 214.698L261.784 226.089L263.003 248.893L248.013 241.985L248.197 228.684H204.615L182.129 240.085L172.369 258.054L168.363 272.386L174.812 286.383L192.591 288.453L220.652 269.449L223.089 278.774L214.375 295.014L235.981 298.638L238.074 331.973L267.36 336.985L286.006 315.394L308.837 320.059L316.855 331.114L338.64 329.731L339.342 323.336L351.366 329.043L364.966 350.282L388.142 350.629L396.684 365.662L397.901 384.142L423.692 393.984L456.289 394.325L465.705 410.04L480.166 414.712L477.379 427.661L461.521 447.871L456.812 492.614L442.695 503.84L421.606 503.146L414.634 515.407L419.864 538.382L396.855 567.923L389.532 581.561L367.582 592.098L353.114 594.168L352.585 600.388L362.695 603.329L361.477 609.889L352.234 618.696L357.815 625.609L368.794 625.951L368.277 634.247L365.311 642.536L364.437 649.272L380.474 662.917L378.216 670L356.246 669.653L334.462 650.479L317.391 620.597L319.649 591.75L306.751 574.482L312.16 545.289L304.486 543.048V479.823C304.429 479.78 282.872 463.421 281.655 463.421C280.608 463.421 270.326 460.655 270.326 460.655L268.233 448.742L240.351 413.677L242.966 401.068L244.006 380.512L263.36 367.038L260.566 343.893L232.332 341.822L210.197 316.605L194.505 312.116L184.4 310.387L185.618 301.062L172.727 299.332V304.509L140.48 296.566L127.409 276.71L132.812 267.025L112.419 237.149L108.936 215.387H100.566L103.354 236.638L117.299 258.395L115.729 267.031L103.877 265.302L89.0645 240.085V210.892L73.7295 203.467V170.819L102.136 136.102L100.394 115.38L108.412 109.679L98.8242 100.701L99.5195 84.9805L88.1973 74.79H56.6396L51.4092 80.4912L13.7666 80.1377L0 68.4004L10.8066 60.8057H38.3389V55.6279L25.4404 53.7217L33.6309 47.3262L51.7598 44.5674L78.7754 26.0869H125.483L150.936 33.6826L159.471 38.6953L167.139 39.3838L178.468 28.3291L215.243 27.9873L223.612 32.4824L239.292 35.9307L240.517 41.9785L265.44 43.0137L262.129 35.0713L240 34.377L245.23 29.5352L243.311 23.6631H223.262L245.046 7.25391H265.97L275.729 20.8975ZM1428.5 561.868L1435.29 560.662L1440 568.264L1427.45 574.823L1415.08 580.007L1403.57 587.091L1362.44 610.407L1345.71 612.825V605.741L1351.11 601.6L1383.53 580.178L1403.75 577.589L1414.55 570.682L1416.3 548.572L1428.32 547.707L1428.5 561.868ZM1309.11 592.615L1308.76 604.188L1295.86 612.483L1280 610.583L1294.99 590.892L1309.11 592.615ZM1300.57 439.581V439.587L1319.04 450.295L1310.33 458.408L1300.22 456.337L1300.74 469.634L1306.32 472.74L1325.67 474.129L1329.85 440.446L1339.96 440.964L1351.11 459.62L1352.5 486.561L1369.59 500.728L1374.3 518.689L1363.14 543.048L1317.99 583.808L1271.11 582.255L1255.77 549.954L1214.64 551.514L1163.58 568.264V559.45L1174.2 549.607L1175.25 499.339L1192.68 487.937L1208.36 487.596L1237.99 455.296L1256.83 454.09V460.82H1263.1L1278.78 439.404L1300.57 439.581ZM994.855 0L1021.35 15.7148H1078.52L1097.87 30.0527L1103.96 30.5703L1118.6 15.8906L1134.64 16.4092L1156.08 19.6914L1169.5 26.4219L1313.29 33.8535L1352.86 50.4326L1347.28 55.0986L1317.99 50.4326L1317.65 56.1338L1328.28 63.3877L1314.51 66.1533V74.4434L1285.75 76.3438L1307.54 96.7295L1310.85 113.479L1301.09 118.486L1270.41 93.4463V81.874L1277.91 70.3008L1272.33 63.3877L1239.04 85.6689L1212.55 83.4209L1203.83 76.8613L1192.68 92.5752L1197.73 102.771L1235.9 107.432L1251.59 125.053L1247.58 130.229L1235.56 118.14L1229.98 124.188L1239.39 136.448L1237.3 159.771H1212.55L1211.16 178.592L1232.07 191.199L1239.39 200.708L1228.41 203.638L1189.37 174.108H1176.82L1177.34 198.289L1205.58 227.824L1207.85 249.24L1193.55 261.16L1161.13 272.732L1164.44 284.823L1158.52 288.965L1151.9 278.774L1152.76 271.003L1141.26 267.373L1134.81 276.187L1135.69 292.942L1158.87 311.075L1161.13 324.89L1147.19 334.05L1136.73 333.015L1117.91 311.593L1114.07 326.454L1149.98 377.229L1147.72 384.659L1103.62 342.51V300.02L1070.15 270.314L1043.66 267.72L1028.67 273.421L1018.91 293.808L1014.03 331.114L1004.97 344.24L996.08 342.169L967.84 296.226L969.588 279.122V266.685L956.684 258.571L901.963 249.587L876.689 248.369L854.554 235.597L852.984 222.3H842.351C842.351 222.3 842.265 226.833 842.179 231.496C842.093 236.158 842.006 240.949 842.006 241.468C842.006 241.63 843.172 242.314 845.14 243.354C845.927 243.771 846.842 244.244 847.862 244.764C854.493 248.139 865.557 253.465 874.65 257.801C883.018 261.79 889.717 264.941 889.76 264.961L903.36 266.685L903.532 276.874L890.807 285.17L850.19 314.528L830.499 315.734L821.083 306.068L820.049 290.524L778.561 240.433L775.601 243.886L817.256 322.478L827.539 327.483L867.274 319.2L874.597 322.647L836.425 377.229L801.741 410.394L809.409 424.037L813.071 460.655L795.471 484.837L787.102 494.686V509.364L774.376 512.124L764.443 529.745L732.898 562.045H690.893V537.347L676.948 518.343V488.638L665.97 477.753L664.923 465.492L678.695 439.24L652.548 393.296L655.687 362.031L632.154 359.607L623.44 350.977H607.754L599.741 358.407H572.024L570.979 360.819H555.471L519.914 320.4L520.265 288.965L526.19 286.724L528.283 274.633H519.914L516.431 262.024L557.557 232.313V211.415L577.601 200.189L585.797 201.049H602.351L615.428 194.142L657.256 190.864V212.104L690.197 220.399L696.646 225.059H702.745V213.486L721.748 211.586L739.871 225.059H769.674L780.302 215.387V200.02L771.588 193.624L742.313 194.142L732.548 183.434L730.628 166.33L720.695 171.861L715.292 192.753L700.831 177.386L700.302 162.877L686.363 150.963L681.305 145.95H665.274L670.326 160.288L689.674 170.996L693.157 174.626L688.973 176.697L689.15 188.094L679.735 192.064L671.551 190.341L666.665 183.257L679.741 183.951L683.403 179.115L654.296 159.6L652.024 151.305L640.173 162.019L628.147 159.6L610.024 183.087L606.363 192.412L594.684 193.453H577.428L566.966 188.617L564.013 168.23L567.668 158.559L585.102 154.758L604.443 158.559L606.714 148.021L598.517 146.121L601.305 129.712L620.658 126.605L634.074 107.602L648.019 105.36L660.388 107.261H665.102L662.486 89.4756L647.323 95.6885L641.92 82.3916L633.027 81.1797L631.286 72.0254L638.431 64.082L655.687 57.3457L665.446 39.9014L691.415 26.5986L737.778 25.2227L775.778 42.8311L769.329 48.3613L737.606 49.7441L738.997 56.4805L769.15 57.3457L781.521 47.6738L785.883 36.2715L791.81 34.7178L795.465 45.0791L818.997 34.2002L868.499 37.4775L864.486 27.293L867.804 14.8555L881.569 18.3096L886.277 25.5576L889.064 46.4609L901.434 42.6602L901.268 21.9395L941.521 3.80078L994.855 0ZM855.957 490.19L835.914 517.825L825.803 533.204L814.474 523.009V506.6L822.843 497.615L828.412 489.502L821.089 481.56V466.698L841.489 469.122L853.514 446.842H865.539L855.957 490.19ZM1286.63 381.888L1296.57 387.766L1295.69 398.65L1306.15 398.303L1317.3 392.432L1357.39 410.734L1358.79 432.327H1367.33V439.41H1350.59V421.613L1340.84 422.472L1331.77 432.15L1307.02 433.703L1306.67 422.131H1314.17L1313.82 416.6L1302.49 410.558L1282.1 407.622L1272.68 395.879L1286.63 381.882V381.888ZM1207.32 425.249V432.503H1200V425.249H1207.32ZM1229.11 422.66L1225.8 423.349V427.838H1221.26V431.639L1214.64 432.503V428.008L1219 422.831L1221.96 418.336H1229.11V422.66ZM1130.81 382.93L1130.47 387.942L1137.26 397.262L1162.18 396.92L1163.06 408.663L1153.99 409.699L1150.34 407.976L1151.2 420.754L1174.03 420.065L1192.69 432.327L1136.74 429.738L1134.47 422.478H1143.02V419.371L1136.57 417.13L1090.72 359.437L1098.92 353.224L1130.81 382.93ZM1250.89 425.249L1245.31 424.561V428.873H1237.13V432.327H1229.11V425.072H1229.63L1232.42 424.731V421.966H1240.44L1240.96 419.378L1250.2 417.995L1250.89 425.249ZM1239.74 424.208H1239.91L1240.26 422.478L1239.74 424.208ZM1236.26 415.918L1228.94 416.265V407.281L1221.96 405.21L1223.18 417.995H1214.29V397.956H1218.65L1218.3 394.673L1236.08 389.148L1236.26 415.918ZM1210.63 354.777L1214.47 356.16V384.312L1210.63 386.56V390.354L1204.54 395.531L1201.05 403.657H1174.2L1163.58 390.531V374.634L1195.47 358.407L1199.66 354.948L1203.14 346.141H1208.89V345.964L1210.63 354.777ZM1032.68 333.532L1031.11 347.864L1015.25 353.041L1010.89 342.687L1020.12 331.455H1020.13L1032.68 333.532ZM280.954 161.324L279.741 164.089L274.16 164.601L272.24 172.556H283.92L289.323 167.195V160.118L280.954 161.324ZM251.674 154.587L250.11 163.742L256.554 167.195L272.246 145.433H260.043L251.674 154.587ZM295.256 160.288L298.394 164.954H310.24V157.693L296.123 153.552H295.256V160.288ZM392.855 145.256L390.763 149.751L385.532 150.092L384.313 155.452L380.48 158.041L373.858 158.559C373.688 157.023 373.512 155.827 373.508 155.8H370.898V150.092H381.526L383.791 144.221H387.97L392.855 145.256ZM279.741 157.523L286.708 156.317L292.289 152.687L292.11 145.433H279.741V157.523ZM369.15 149.922L368.283 156.658L358.345 157.523L358.868 150.786L363.225 145.262L369.15 149.922ZM299.606 147.851L303.963 151.651L308.498 147.851L302.745 144.397L299.606 147.851ZM286.013 142.497L293.687 140.597L286.013 133.689V142.497ZM253.767 134.725L251.674 140.085L259.864 142.32H282.006V134.73H278.868V130.4H264.4L253.767 134.725ZM607.059 94.1348L613.336 104.502L617.521 109.332L625.188 112.444L618.043 121.252L604.099 122.635H593.465L594.684 110.026L603.403 108.126L602.529 102.077L594.511 96.9004L588.757 92.7588V86.8809L592.067 81.7031L604.271 79.2793L607.059 94.1348ZM582.831 100.865L589.107 103.801L588.585 111.75L574.991 122.451H567.323V114.851L573.944 103.113L582.831 100.859V100.865ZM230.941 107.084L236.861 119.346L246.277 116.239L249.23 104.495L240.523 102.596L230.941 107.084ZM218.388 63.3818C217.694 63.3819 209.718 64.756 209.668 64.7646L196.775 68.3887L200.259 72.5361L218.388 71.3301C218.388 71.5006 218.911 63.3818 218.388 63.3818ZM204.794 46.1084H196.775V54.0566H214.898L218.738 49.0498V43.3428H205.489L204.794 46.1084Z" fill="url(#pattern0_10_731)"/>
<defs>
<pattern id="pattern0_10_731" patternUnits="userSpaceOnUse" patternTransform="matrix(4.69821 0 0 4.69821 717.651 332.651)" preserveAspectRatio="none" viewBox="0 0 20 20" width="1" height="1">
<g id="pattern0_10_731_inner">
<circle cx="10" cy="10" r="2" fill="black"/>
</g>
</pattern></defs>
</svg>
